<svg xmlns:xlink="http://www.w3.org/1999/xlink" xmlns="http://www.w3.org/2000/svg" viewBox="0 0 71 89" width="71"  height="89" ><path d="M67.783 66.757c-3.771-5.87-8.347-9.685-14.883-11.845 0 0-4.932-2.547-17.825-2.547-12.894 0-17.824 2.547-17.824 2.547C10.713 57.09 6.14 60.887 2.36 66.757.857 69.067.056 73.716 0 76.195c.02.645 0 1.391 0 2.14v4.28-2.954c0 4.734 3.216 8.568 7.188 8.568h55.756c3.972 0 7.188-3.834 7.188-8.568v2.955-4.28c0-.75-.01-1.496 0-2.14-.048-2.48-.86-7.129-2.35-9.439m-52.37-46.875c0 10.972 6.818 27.097 19.653 27.097 12.62 0 19.646-16.125 19.646-27.097C54.711 8.91 45.913 0 35.065 0 24.21 0 15.41 8.91 15.41 19.882" fill="#717790"></path></svg>