<svg xmlns:xlink="http://www.w3.org/1999/xlink" xmlns="http://www.w3.org/2000/svg" viewBox="0 0 20 20" width="20"  height="20" ><path d="M7 .995C7 .445 7.447 0 7.999 0H19c.552 0 .999.456.999.995v8.01c0 .55-.447.995-.999.995H8C7.447 10 7 9.544 7 9.005V.995zm0 11.003c0-.551.447-.998.999-.998H19c.552 0 .999.446.999.998v7.004c0 .551-.447.998-.999.998H8A.998.998 0 017 19.002v-7.004zM0 .992C0 .444.451 0 .99 0h4.02c.546 0 .99.455.99.992v18.016a.996.996 0 01-.99.992H.99a.999.999 0 01-.99-.992V.992z" fill="#5A5F73"></path></svg>